<?xml version="1.0" standalone="no"?>
<!DOCTYPE svg PUBLIC "-//W3C//DTD SVG 20010904//EN"
 "http://www.w3.org/TR/2001/REC-SVG-20010904/DTD/svg10.dtd">
<svg version="1.0" xmlns="http://www.w3.org/2000/svg"
 width="1472.000000pt" height="832.000000pt" viewBox="0 0 1472.000000 832.000000"
 preserveAspectRatio="xMidYMid meet">

<g transform="translate(0.000000,832.000000) scale(0.100000,-0.100000)"
fill="#000000" stroke="none">
<path d="M5850 7184 c-212 -19 -286 -41 -320 -96 -19 -30 -21 -43 -15 -133 4
-55 5 -361 4 -680 -5 -1003 1 -2178 11 -2190 6 -7 7 -15 3 -18 -11 -11 -3
-650 12 -992 14 -323 24 -425 49 -525 27 -105 47 -202 43 -206 -7 -8 -55 108
-95 231 -22 66 -86 217 -142 335 -175 368 -323 716 -411 964 -33 92 -108 292
-168 445 -60 152 -125 328 -145 391 -21 63 -64 196 -96 295 -71 221 -101 321
-135 450 -15 55 -31 111 -36 125 -4 14 -27 93 -49 175 -22 83 -65 211 -94 285
-30 74 -64 167 -76 205 -28 85 -70 185 -138 325 -28 58 -55 125 -62 150 -18
75 -70 197 -91 216 -34 30 -167 30 -349 0 -85 -14 -164 -26 -177 -26 -13 0
-64 -13 -115 -29 -51 -17 -113 -32 -138 -36 -25 -3 -75 -10 -112 -16 -43 -7
-73 -7 -84 -1 -14 8 -12 11 17 20 19 6 50 13 69 16 235 35 380 64 380 77 0 12
-172 11 -267 -2 -43 -6 -104 -19 -136 -30 -78 -26 -183 -93 -191 -122 -10 -38
-7 -117 8 -176 10 -41 16 -167 21 -461 3 -223 8 -436 10 -475 13 -305 17 -384
25 -485 6 -63 14 -158 20 -210 5 -52 12 -252 15 -445 3 -192 12 -469 19 -615
23 -421 30 -759 18 -816 -7 -27 -14 -114 -16 -194 -3 -80 -8 -191 -12 -247 -5
-76 -3 -107 6 -118 7 -8 8 -15 2 -15 -16 0 -20 -583 -7 -1185 7 -319 25 -341
280 -339 151 1 272 20 448 71 89 25 134 89 117 168 -1 6 -4 80 -6 165 -2 85
-8 200 -14 255 -5 55 -9 253 -9 440 1 308 -6 548 -16 615 -30 198 -41 350 -44
590 -2 172 -12 397 -26 530 -2 25 -7 95 -10 155 -3 61 -15 220 -25 355 -10
135 -21 304 -25 375 -5 124 -21 337 -29 400 -3 17 -7 82 -11 145 -5 92 -3 124
9 159 9 24 19 68 22 98 4 29 11 53 15 53 5 0 9 -7 9 -16 0 -30 102 -320 137
-389 81 -159 209 -441 274 -600 97 -242 171 -418 213 -510 20 -43 82 -216 137
-385 55 -168 128 -381 161 -475 33 -93 89 -260 123 -370 35 -110 92 -290 128
-400 35 -110 72 -236 82 -280 43 -195 158 -633 201 -765 55 -173 70 -203 124
-253 37 -34 44 -37 83 -33 26 3 37 2 28 -3 -51 -32 553 -13 819 26 162 23 197
47 170 113 -8 19 -9 34 -2 47 18 33 22 103 26 448 5 419 -14 647 -79 970 -8
39 -17 115 -20 170 -3 55 -10 138 -15 185 -6 47 -12 227 -15 400 -4 301 -4
311 10 215 8 -55 14 -179 15 -275 1 -326 26 -546 60 -525 20 12 21 103 4 351
-22 326 -26 1302 -6 1544 11 145 48 436 72 575 18 104 29 249 35 443 7 235 18
346 55 542 38 204 50 303 50 426 0 75 5 120 21 170 19 60 20 75 9 121 -14 66
-50 98 -117 108 -184 24 -422 38 -523 29z m350 -65 c58 -6 112 -15 120 -19 17
-8 42 -2 52 14 4 6 9 4 14 -7 3 -9 12 -17 20 -17 14 0 19 -15 29 -91 5 -43 2
-51 -38 -110 -24 -35 -47 -73 -51 -84 -10 -25 -30 -228 -50 -500 -3 -38 -17
-171 -30 -295 -26 -233 -41 -413 -51 -585 -3 -55 -8 -107 -10 -115 -2 -8 -16
-118 -30 -245 -14 -126 -28 -239 -30 -250 -6 -27 -17 -196 -19 -267 -1 -31 -4
-59 -8 -63 -10 -11 -10 250 1 530 6 138 13 322 15 410 3 88 10 223 15 300 17
242 22 492 10 475 -9 -13 -10 -13 -6 2 3 9 1 19 -6 21 -7 2 -8 8 -3 13 5 5 11
4 13 -3 9 -26 20 -12 31 40 6 28 27 165 47 304 19 138 40 264 45 279 13 33 5
74 -14 74 -25 0 -64 -39 -80 -81 -29 -71 -52 -265 -76 -634 -6 -88 -18 -200
-26 -250 -7 -49 -14 -94 -14 -98 0 -5 -5 -5 -11 -2 -10 7 -4 282 7 360 10 62
15 405 6 405 -14 0 -10 29 5 34 9 4 13 29 13 91 0 119 -26 162 -55 92 -35 -85
-44 -204 -50 -677 -3 -256 -7 -494 -9 -530 -3 -36 -7 -139 -10 -230 -18 -482
-34 -482 -37 0 -3 588 -2 705 10 845 6 77 13 183 15 235 3 52 8 145 12 207 6
92 4 116 -8 135 -20 31 -84 38 -92 11 -3 -10 -5 -85 -4 -168 0 -138 -4 -216
-16 -320 -16 -130 -21 -539 -21 -1680 0 -999 -3 -1313 -14 -1430 -15 -167 -18
-537 -7 -930 9 -339 5 -348 -80 -160 -39 88 -40 90 -21 105 17 14 20 36 28
181 10 187 6 337 -16 629 -40 546 -46 1517 -12 1830 18 164 34 398 42 605 3
77 9 177 15 222 5 45 10 132 11 193 1 117 7 176 34 360 14 90 16 157 12 307
-5 178 -7 196 -29 235 -23 43 -70 79 -84 65 -5 -4 -7 -24 -5 -45 1 -20 2 -46
1 -57 -4 -47 -1 -627 3 -700 2 -44 1 -120 -4 -170 -4 -49 -10 -279 -12 -510
-3 -231 -7 -429 -10 -440 -18 -76 -29 -1341 -13 -1580 5 -66 5 -117 2 -114
-10 9 -37 216 -41 314 -2 50 -7 160 -10 245 -4 85 -9 169 -11 185 -4 27 -9
297 -14 860 -1 111 4 259 13 355 9 91 19 260 22 375 4 116 13 255 20 310 23
162 38 871 21 976 l-6 37 148 5 c346 14 512 32 512 57 0 13 -2 13 -180 11
-187 -3 -282 10 -513 70 -79 21 -1 47 173 59 125 9 236 5 400 -11z m-535 -109
c3 -6 -1 -7 -9 -4 -18 7 -21 14 -7 14 6 0 13 -4 16 -10z m-1832 -106 c43 -7
52 -20 62 -89 4 -34 37 -110 99 -235 90 -180 110 -226 196 -455 51 -135 132
-384 171 -525 16 -58 38 -134 48 -170 11 -36 28 -96 37 -135 74 -308 175 -617
317 -970 35 -88 94 -248 130 -355 36 -107 98 -269 137 -360 40 -91 105 -241
145 -335 40 -93 116 -258 168 -365 52 -107 120 -265 152 -350 31 -85 83 -218
114 -295 53 -127 91 -249 91 -289 0 -37 -38 6 -132 148 -55 83 -117 183 -138
221 -63 115 -147 335 -204 533 -59 203 -175 545 -223 657 -17 39 -45 115 -63
170 -38 116 -84 243 -217 590 -53 138 -115 304 -138 370 -23 67 -49 135 -58
152 -9 17 -36 89 -61 159 -24 71 -54 154 -66 184 -51 128 -167 461 -254 730
-118 366 -252 722 -301 800 -13 20 -39 49 -57 64 l-33 26 32 0 c40 0 67 35 58
73 -7 24 -51 48 -115 61 -31 6 51 -2 103 -10z m2584 -201 c-6 -110 -26 -287
-52 -468 -20 -143 -34 -267 -40 -370 -12 -204 -27 -371 -51 -570 -14 -115 -27
-228 -30 -250 -2 -22 -6 -53 -9 -70 -3 -16 -7 -59 -10 -94 -2 -35 -9 -69 -14
-74 -15 -15 -14 25 4 207 32 322 45 467 55 611 16 232 30 385 41 446 11 68 18
123 24 214 6 87 11 126 18 145 3 8 12 80 21 160 27 231 53 302 43 113z m-3555
41 c4 -37 -6 -55 -16 -28 -9 24 -7 64 3 64 5 0 11 -16 13 -36z m806 28 c22 -7
22 -11 25 -155 1 -98 -1 -140 -7 -125 -45 109 -120 236 -156 261 -11 8 -17 17
-13 20 8 9 120 7 151 -1z m-339 -103 c-23 -46 -51 -109 -62 -139 -10 -30 -35
-98 -53 -150 l-34 -95 6 65 c3 36 14 114 24 174 14 82 16 115 8 132 -6 13 -15
24 -20 24 -4 0 -8 4 -8 9 0 6 12 9 27 8 20 -1 30 5 39 23 11 20 23 26 61 30
26 3 49 5 51 4 2 -1 -16 -40 -39 -85z m-234 37 c-24 -24 -45 -82 -45 -126 0
-14 -3 -43 -7 -65 l-6 -40 -14 67 c-7 37 -22 88 -33 113 -11 25 -21 49 -22 53
-3 7 58 18 119 20 l32 2 -24 -24z m-208 -128 c-3 -8 -6 -5 -6 6 -1 11 2 17 5
13 3 -3 4 -12 1 -19z m662 -90 c105 -140 362 -752 496 -1183 34 -110 74 -226
230 -670 57 -163 71 -211 130 -440 36 -142 69 -314 62 -322 -3 -2 -12 22 -21
54 -28 99 -103 326 -127 378 -34 75 -34 38 -1 -67 16 -51 32 -120 36 -153 l6
-60 -24 55 c-13 30 -59 134 -101 230 -72 165 -175 429 -175 449 0 5 -20 60
-44 123 -42 108 -71 173 -149 338 -19 41 -47 104 -62 140 -15 36 -33 79 -40
95 -77 172 -210 595 -222 704 -11 97 30 35 112 -169 23 -58 78 -191 123 -295
44 -105 91 -224 105 -265 73 -215 244 -640 257 -640 10 0 -83 272 -141 414
-23 56 -63 164 -89 241 -43 124 -90 255 -136 380 -9 22 -21 58 -29 80 -62 189
-154 386 -207 443 -40 42 -82 24 -112 -49 -22 -52 -55 -222 -62 -322 -4 -48
-11 -87 -15 -87 -36 0 -45 205 -15 325 33 127 132 325 163 325 7 0 30 -24 52
-52z m364 -178 c20 -58 54 -148 77 -200 24 -52 60 -144 80 -205 21 -60 66
-186 100 -280 87 -237 141 -397 138 -407 -3 -8 -61 130 -133 317 -23 61 -67
166 -98 235 -55 126 -200 551 -213 625 -11 68 11 28 49 -85z m1982 -15 c1 -24
-3 -31 -13 -28 -7 3 -11 12 -8 20 3 8 6 24 6 35 0 12 3 18 7 14 5 -4 8 -23 8
-41z m-2393 -54 c-4 -73 21 -205 69 -361 57 -184 58 -190 26 -190 -43 0 -75
-21 -91 -59 -8 -20 -20 -98 -27 -173 -13 -144 -5 -325 27 -618 10 -93 14 -214
12 -394 -2 -201 0 -260 10 -263 6 -3 12 -9 12 -14 0 -6 -5 -7 -11 -4 -11 8 -6
-123 11 -290 5 -49 10 -128 10 -175 0 -47 9 -164 20 -260 34 -304 40 -369 55
-635 8 -143 22 -352 30 -465 14 -204 18 -993 3 -865 -3 33 -13 87 -21 120 -20
77 -34 179 -47 333 -15 181 -46 391 -90 617 -38 195 -58 336 -80 560 -6 61
-15 128 -20 150 -5 22 -10 173 -10 335 -1 302 -12 576 -24 588 -4 3 -11 0 -16
-8 -14 -22 -20 -8 -20 46 0 27 0 59 0 72 0 34 18 26 23 -10 2 -19 5 -6 5 29 1
41 -2 63 -10 66 -10 4 -10 7 0 18 6 7 12 24 12 37 0 20 -3 22 -14 13 -12 -10
-16 -4 -24 36 -13 59 -3 81 13 27 l11 -39 15 25 c12 21 13 115 10 620 -3 512
-1 614 14 735 19 157 58 358 82 417 21 53 39 43 35 -21z m498 49 c0 -5 -2 -10
-4 -10 -3 0 -8 5 -11 10 -3 6 -1 10 4 10 6 0 11 -4 11 -10z m1897 -80 c2 -47
-12 -53 -21 -9 -9 47 -7 59 7 53 7 -2 13 -22 14 -44z m-13 -317 c-7 -321 -6
-313 -20 -313 -6 0 -11 32 -13 83 -1 45 -3 105 -5 132 -2 28 1 55 6 62 6 7 5
19 -2 32 -7 15 -7 21 0 21 6 0 8 10 4 25 -3 14 -1 31 5 39 9 10 9 20 0 40 -9
20 -9 29 0 40 7 8 11 23 10 33 -3 20 9 73 16 73 3 0 3 -120 -1 -267z m-2531
-126 c-10 -211 -10 -217 -22 -217 -5 0 -10 37 -11 83 -1 45 -3 118 -4 162 -3
81 8 109 30 79 8 -10 10 -47 7 -107z m-439 -176 c3 -36 10 -160 17 -276 6
-115 14 -251 18 -301 7 -102 -1 -172 -12 -94 -4 25 -9 101 -12 170 -3 69 -7
150 -10 180 -11 132 -25 365 -24 403 1 40 1 40 9 13 5 -15 11 -58 14 -95z
m736 32 c6 -16 19 -45 30 -65 12 -20 45 -97 75 -170 52 -127 55 -147 23 -148
-19 0 -153 322 -144 345 6 16 -22 35 -41 28 -20 -7 -15 15 5 26 28 17 42 13
52 -16z m2220 -69 c0 -8 -5 -12 -10 -9 -6 4 -8 11 -5 16 9 14 15 11 15 -7z
m-3 -76 c-2 -13 -4 -5 -4 17 -1 22 1 32 4 23 2 -10 2 -28 0 -40z m-2540 -5
c-3 -10 -5 -2 -5 17 0 19 2 27 5 18 2 -10 2 -26 0 -35z m1 -140 c-2 -79 -3
-84 -11 -46 -8 37 -2 133 8 133 2 0 4 -39 3 -87z m521 -185 c64 -144 82 -248
22 -130 -61 121 -82 192 -56 192 3 0 18 -28 34 -62z m91 -263 c0 -5 -5 -3 -10
5 -5 8 -10 20 -10 25 0 6 5 3 10 -5 5 -8 10 -19 10 -25z m490 5 c0 -5 -2 -10
-4 -10 -3 0 -8 5 -11 10 -3 6 -1 10 4 10 6 0 11 -4 11 -10z m-1483 -42 c-3 -8
-6 -5 -6 6 -1 11 2 17 5 13 3 -3 4 -12 1 -19z m298 -36 c-8 -9 -25 20 -18 31
3 5 10 2 15 -7 6 -10 7 -20 3 -24z m735 -5 c0 -18 -2 -19 -10 -7 -13 20 -13
43 0 35 6 -3 10 -16 10 -28z m-740 -17 c0 -5 -4 -10 -10 -10 -5 0 -10 5 -10
10 0 6 5 10 10 10 6 0 10 -4 10 -10z m60 -56 c0 -8 -4 -12 -10 -9 -5 3 -10 10
-10 16 0 5 5 9 10 9 6 0 10 -7 10 -16z m738 -69 c-3 -3 -9 2 -12 12 -6 14 -5
15 5 6 7 -7 10 -15 7 -18z m-1091 -66 c-4 -45 -9 -84 -12 -87 -7 -7 -6 98 1
137 11 56 16 33 11 -50z m267 55 c9 -22 8 -24 -11 -25 -11 0 -13 -3 -5 -6 16
-6 16 -30 0 -35 -7 -3 -13 -18 -14 -34 0 -16 -2 -40 -3 -54 -3 -22 -4 -20 -12
10 -18 77 22 205 45 144z m1332 -149 c9 -27 31 -79 48 -115 17 -36 32 -69 33
-75 2 -5 8 -31 15 -57 7 -27 16 -48 20 -48 5 0 8 -8 8 -18 0 -10 4 -22 8 -28
4 -5 14 -27 21 -49 7 -22 21 -59 31 -82 11 -23 57 -151 104 -285 46 -133 102
-288 124 -343 21 -55 67 -187 102 -294 34 -107 82 -247 107 -310 127 -325 311
-842 328 -922 9 -44 -7 -27 -24 26 -7 22 -30 85 -51 140 -104 271 -157 411
-201 530 -107 290 -199 535 -234 625 -36 94 -84 238 -145 440 -18 57 -66 190
-107 295 -41 104 -92 246 -115 315 -22 69 -62 181 -88 250 -26 69 -50 136 -54
150 -8 36 50 -85 70 -145z m-1222 83 c3 -15 2 -29 -4 -33 -5 -3 -12 6 -15 20
-17 85 -17 82 -2 60 8 -11 17 -32 21 -47z m772 -80 c47 -144 48 -147 34 -125
-12 18 -80 214 -80 229 0 24 12 -4 46 -104z m-837 50 c-4 -24 -14 -62 -23 -85
-8 -23 -18 -63 -22 -90 -3 -26 -11 -55 -16 -63 -6 -11 -7 -7 -3 13 5 25 22
136 29 192 4 30 24 75 34 75 6 0 6 -18 1 -42z m-315 -168 c-9 -66 -14 -62 -14
11 0 45 3 60 10 49 5 -8 7 -35 4 -60z m6 -85 c0 -8 -4 -15 -10 -15 -5 0 -10 7
-10 15 0 8 5 15 10 15 6 0 10 -7 10 -15z m117 -7 c-3 -8 -6 -5 -6 6 -1 11 2
17 5 13 3 -3 4 -12 1 -19z m538 -333 c4 -99 5 -178 2 -175 -8 7 -25 215 -31
365 l-5 130 14 -70 c7 -38 16 -151 20 -250z m-655 295 c0 -5 -2 -10 -4 -10 -3
0 -8 5 -11 10 -3 6 -1 10 4 10 6 0 11 -4 11 -10z m3090 -402 c9 -242 9 -353 1
-425 -16 -149 -22 -295 -11 -288 6 4 10 40 10 82 0 42 3 74 6 70 4 -3 6 -48 6
-99 -1 -117 -20 -674 -27 -788 -3 -47 -7 -112 -9 -145 -2 -33 -9 -107 -15
-165 -6 -58 -13 -135 -17 -172 -3 -38 -9 -68 -14 -68 -20 0 -22 131 -6 390 20
345 26 518 31 1000 5 534 17 952 25 943 4 -4 13 -155 20 -335z m-2897 320 c4
-10 8 -9 16 2 14 20 15 -4 1 -30 -6 -11 -6 -21 -1 -24 6 -4 8 -100 6 -229 -5
-290 -6 -399 -4 -417 4 -31 -3 -84 -8 -70 -3 8 -9 17 -13 20 -17 11 -38 629
-25 716 6 43 18 56 28 32z m202 -225 c-2 -98 -9 -214 -15 -258 -5 -44 -10
-118 -9 -165 0 -47 -5 -168 -11 -270 -6 -102 -11 -279 -10 -395 0 -115 -2
-226 -6 -245 -20 -111 -8 -676 14 -717 4 -6 7 117 7 275 0 180 -4 290 -10 294
-6 5 -5 8 2 8 7 0 13 10 13 23 -1 219 16 757 24 764 3 4 7 -45 8 -108 2 -168
13 -373 24 -448 28 -208 63 -1365 41 -1387 -14 -15 -25 17 -36 110 -53 432
-51 418 -62 436 -8 15 -7 -65 7 -415 5 -139 4 -166 -12 -204 -16 -40 -18 -42
-31 -25 -7 10 -13 13 -13 8 0 -6 5 -15 11 -21 6 -6 9 -17 7 -25 -3 -7 -19 15
-36 49 -17 34 -36 64 -41 67 -5 4 -13 21 -16 39 -4 17 -10 37 -13 42 -4 6 -8
19 -9 30 -2 11 -8 24 -13 29 -4 4 -6 15 -3 22 3 8 1 20 -4 27 -5 6 -9 26 -8
42 1 17 -3 33 -9 37 -8 5 -7 11 1 19 10 10 9 15 -5 26 -9 8 -11 12 -4 8 15 -8
17 31 1 40 -6 5 -4 12 8 21 11 8 13 13 5 14 -8 0 -11 13 -7 44 5 38 2 47 -15
56 -21 11 -26 2 -21 -44 1 -11 -2 -16 -6 -12 -9 9 -12 86 -3 86 3 0 10 -4 16
-10 6 -6 15 -6 24 0 10 7 11 13 5 18 -12 8 -12 43 -1 61 4 6 0 11 -10 11 -15
0 -15 2 0 24 9 15 11 26 5 28 -6 2 -7 12 -1 28 7 18 5 31 -6 47 -9 15 -10 23
-3 23 6 0 11 5 11 11 0 6 -8 9 -17 7 -12 -2 -17 -11 -15 -26 2 -13 -2 -22 -10
-22 -8 -1 -4 -8 9 -19 17 -14 19 -20 9 -24 -37 -14 -39 2 -43 345 -2 183 -1
348 2 367 12 66 25 14 31 -129 7 -156 7 -156 3 -213 -1 -25 3 -42 12 -49 11
-8 11 -9 -2 -5 -14 5 -16 -1 -13 -31 3 -20 4 -70 4 -110 0 -56 3 -73 12 -70 7
3 13 16 14 29 6 175 21 436 31 549 3 41 6 103 6 138 0 34 3 62 7 62 14 0 18
-25 14 -85 -4 -59 -4 -60 10 -28 22 49 37 222 51 613 3 69 12 184 21 255 8 72
16 152 17 178 2 27 7 51 12 55 14 10 17 24 28 155 5 64 14 117 18 117 5 0 7
-80 4 -177z m-125 66 c0 -5 -4 -9 -10 -9 -5 0 -10 7 -10 16 0 8 5 12 10 9 6
-3 10 -10 10 -16z m-161 -61 c0 -41 -3 -56 -8 -43 -4 11 -7 34 -5 50 1 17 3
36 3 43 1 6 3 12 6 12 3 0 5 -28 4 -62z m3118 10 c-3 -7 -5 -2 -5 12 0 14 2
19 5 13 2 -7 2 -19 0 -25z m0 -130 c-2 -18 -4 -6 -4 27 0 33 2 48 4 33 2 -15
2 -42 0 -60z m-1428 -168 c12 -41 28 -90 36 -108 8 -18 15 -37 15 -43 0 -11
22 -66 40 -100 5 -9 12 -33 15 -53 4 -20 11 -36 16 -36 5 0 9 -9 9 -20 0 -11
4 -20 9 -20 5 0 12 -13 16 -30 4 -16 10 -30 13 -30 4 0 16 -30 26 -67 11 -38
57 -175 103 -306 46 -131 82 -244 80 -250 -6 -20 -217 525 -217 563 0 7 -17
51 -39 99 -35 77 -92 243 -180 524 -17 55 -28 104 -24 110 6 10 31 -61 82
-233z m-1494 210 c3 -5 1 -10 -4 -10 -6 0 -11 5 -11 10 0 6 2 10 4 10 3 0 8
-4 11 -10z m1263 -135 c11 -33 23 -69 27 -80 l7 -20 -14 20 c-15 20 -68 170
-68 190 1 16 27 -45 48 -110z m-128 61 c0 -7 9 -25 20 -39 26 -33 75 -154 121
-302 21 -66 51 -160 69 -209 17 -49 29 -96 27 -105 -7 -30 -77 140 -161 392
-47 139 -88 261 -92 271 -5 14 -4 17 4 12 7 -4 12 -13 12 -20z m-776 -398 c4
-78 3 -90 -3 -48 -13 85 -20 198 -10 173 4 -12 10 -68 13 -125z m-527 -5 c-3
-10 -5 -2 -5 17 0 19 2 27 5 18 2 -10 2 -26 0 -35z m3032 -318 c17 -181 32
-308 38 -325 7 -19 12 -97 17 -275 3 -77 10 -170 15 -207 32 -203 44 -364 43
-566 -1 -119 -6 -221 -12 -230 -5 -9 -10 -12 -10 -7 0 6 -9 80 -20 165 -56
435 -80 730 -94 1140 -13 398 -15 502 -8 533 7 35 7 32 31 -228z m-2952 193
c-3 -7 -5 -2 -5 12 0 14 2 19 5 13 2 -7 2 -19 0 -25z m-28 -75 l-1 -48 -9 35
c-4 19 -6 41 -4 48 9 25 15 10 14 -35z m41 37 c0 -5 -4 -10 -10 -10 -5 0 -10
5 -10 10 0 6 5 10 10 10 6 0 10 -4 10 -10z m2506 -255 c28 -298 30 -667 4
-639 -16 17 -41 839 -25 823 2 -3 12 -86 21 -184z m-2539 143 c-3 -8 -6 -5 -6
6 -1 11 2 17 5 13 3 -3 4 -12 1 -19z m19 -80 c4 -25 2 -29 -5 -18 -11 16 -15
68 -5 58 3 -4 8 -21 10 -40z m1758 -673 c70 -192 131 -358 136 -367 6 -10 10
-26 10 -35 1 -55 224 -680 251 -705 28 -24 24 -28 -25 -28 l-44 0 -52 128
c-171 418 -233 610 -321 987 -12 50 -36 152 -55 227 -34 138 -38 155 -30 147
2 -2 61 -161 130 -354z m-1409 -41 c13 -77 27 -194 31 -260 3 -65 9 -158 13
-206 4 -49 4 -88 1 -88 -9 0 -29 153 -36 270 -3 58 -18 182 -33 275 -15 94
-25 179 -22 190 4 17 6 15 13 -10 5 -17 19 -93 33 -171z m1692 57 c2 -22 1
-22 -12 -5 -8 11 -15 27 -15 37 0 28 25 -2 27 -32z m-2286 -44 c-10 -9 -11 -8
-5 6 3 10 9 15 12 12 3 -3 0 -11 -7 -18z m2739 -38 c0 -6 -4 -7 -10 -4 -5 3
-10 11 -10 16 0 6 5 7 10 4 6 -3 10 -11 10 -16z m-240 -5 c0 -8 -4 -12 -10 -9
-5 3 -10 10 -10 16 0 5 5 9 10 9 6 0 10 -7 10 -16z m824 -174 c4 -82 3 -92 -3
-45 -14 99 -22 226 -11 185 5 -19 11 -82 14 -140z m-1118 123 c9 -21 34 -90
55 -153 22 -63 37 -99 34 -80 -4 24 5 9 28 -45 32 -75 115 -260 157 -350 l19
-40 -20 25 c-36 43 -72 111 -122 230 -26 63 -46 103 -42 88 8 -42 -1 -34 -18
15 -83 233 -119 347 -112 347 3 0 12 -17 21 -37z m963 -330 c1 -104 44 -408
76 -537 14 -55 24 -101 22 -101 -1 -1 -54 -5 -119 -9 -114 -7 -116 -6 -111 14
5 19 -10 29 -20 13 -2 -5 -2 -2 0 5 15 62 15 62 -4 62 -21 0 -83 -47 -83 -63
0 -5 6 -5 13 2 19 15 29 3 16 -20 -7 -14 -21 -19 -55 -19 -25 0 -87 -4 -137
-10 -51 -5 -133 -11 -184 -13 -77 -4 -93 -2 -98 12 -3 8 -2 17 4 19 5 2 -2 29
-16 60 -38 85 -64 162 -69 207 -5 40 -5 40 40 -33 25 -40 58 -89 74 -107 31
-39 120 -105 140 -105 32 0 21 61 -32 188 -46 109 -22 93 35 -23 39 -80 62
-114 82 -125 26 -14 29 -13 42 4 12 16 18 18 37 8 57 -29 76 -32 97 -14 12 9
48 69 82 132 33 63 58 102 55 85 -4 -16 -11 -61 -18 -99 -10 -67 -10 -70 12
-88 30 -25 56 -23 75 6 24 36 38 253 33 516 -2 124 -1 200 3 170 4 -30 7 -92
8 -137z m168 60 c-3 -10 -5 -4 -5 12 0 17 2 24 5 18 2 -7 2 -21 0 -30z m-841
-182 c59 -135 71 -180 22 -86 -50 98 -99 217 -87 213 7 -2 36 -59 65 -127z
m-446 69 c0 -13 -1 -13 -10 0 -5 8 -10 22 -10 30 0 13 1 13 10 0 5 -8 10 -22
10 -30z m-1860 -10 c0 -5 -4 -10 -10 -10 -5 0 -10 5 -10 10 0 6 5 10 10 10 6
0 10 -4 10 -10z m1913 -145 c20 -60 45 -136 56 -169 15 -43 18 -62 10 -75 -9
-14 -10 -14 -5 2 3 10 0 17 -8 17 -19 0 -60 106 -100 260 -38 147 -4 122 47
-35z m228 78 c6 -21 21 -57 32 -81 19 -42 18 -72 -2 -35 -22 42 -60 153 -51
153 4 0 14 -17 21 -37z m-2142 -72 c10 -6 10 -10 1 -16 -7 -4 -9 -18 -5 -36 4
-18 3 -29 -4 -29 -6 0 -11 6 -11 14 0 7 -3 28 -6 45 -7 31 0 38 25 22z m2211
-126 c0 -5 -5 -3 -10 5 -5 8 -10 20 -10 25 0 6 5 3 10 -5 5 -8 10 -19 10 -25z
m-2258 -312 c-2 -62 -7 -113 -13 -113 -11 0 -12 221 -2 271 l7 34 6 -40 c3
-22 4 -91 2 -152z m154 -101 c16 -28 17 -34 4 -42 -8 -5 -18 -6 -22 -4 -15 10
-38 64 -48 112 -5 26 -12 58 -16 72 -3 14 10 -4 28 -40 19 -36 43 -80 54 -98z
m285 59 c-13 -17 -27 -31 -32 -31 -22 0 -19 32 7 66 27 34 29 35 37 16 7 -15
4 -28 -12 -51z m-165 -57 c-26 -19 -36 -18 -36 4 0 30 22 45 40 26 13 -14 13
-17 -4 -30z m2101 -80 c-3 -3 -12 -4 -19 -1 -8 3 -5 6 6 6 11 1 17 -2 13 -5z"/>
<path d="M4145 4753 c5 -10 27 -75 50 -145 24 -69 48 -134 54 -145 10 -17 10
-17 11 4 0 39 -98 303 -114 303 -4 0 -5 -8 -1 -17z"/>
<path d="M4267 4443 c-8 -13 2 -43 14 -43 10 0 10 8 0 34 -5 12 -10 16 -14 9z"/>
<path d="M6024 3116 c-3 -8 -4 -25 -2 -38 3 -17 5 -13 9 15 5 38 2 47 -7 23z"/>
<path d="M3223 2465 c-6 -22 -14 -132 -18 -245 -3 -113 -6 -212 -7 -220 0 -8
1 -26 2 -40 2 -14 1 -31 -1 -39 -2 -7 2 -16 9 -18 9 -3 12 15 12 72 0 42 5
141 11 219 6 77 9 179 7 226 -3 83 -3 84 -15 45z"/>
<path d="M3201 1871 c-10 -6 -10 -10 -1 -16 9 -6 9 -9 -1 -15 -10 -7 -10 -12
0 -23 7 -10 8 -18 2 -21 -10 -7 -9 -45 2 -63 4 -6 3 -14 -2 -18 -12 -7 -3 -35
10 -35 6 0 9 44 8 100 -1 55 -2 100 -3 100 0 0 -7 -4 -15 -9z"/>
<path d="M3207 1663 c-4 -7 -2 -78 3 -78 1 0 3 -29 5 -65 4 -73 33 -237 46
-260 12 -22 11 -6 -10 147 -11 76 -23 165 -26 198 -6 62 -10 72 -18 58z"/>
<path d="M10034 7098 c-36 -43 -110 -200 -189 -402 -35 -89 -74 -186 -88 -217
-39 -87 -190 -462 -235 -584 -35 -94 -168 -427 -335 -840 -80 -197 -258 -655
-384 -990 -19 -49 -38 -99 -42 -110 -5 -11 -36 -90 -70 -175 -56 -145 -82
-213 -211 -565 -28 -77 -55 -149 -60 -160 -5 -11 -33 -83 -61 -160 -28 -77
-87 -236 -131 -354 -44 -118 -88 -244 -98 -280 -11 -36 -42 -129 -71 -206 -28
-77 -62 -174 -74 -215 -33 -110 -94 -281 -109 -310 -7 -14 -19 -43 -26 -65
-24 -80 -72 -173 -91 -178 -30 -8 -44 -49 -27 -83 31 -66 195 -108 490 -126
286 -17 328 -17 361 5 23 15 27 25 27 63 0 30 23 115 66 242 70 212 120 391
189 677 24 99 57 234 74 300 17 66 33 132 36 148 5 23 10 27 41 27 19 0 45 6
57 14 18 11 70 26 109 30 3 1 9 3 11 6 3 3 52 2 109 -2 245 -18 398 -20 415
-6 9 7 14 8 10 2 -4 -8 9 -12 43 -13 34 0 50 3 50 12 0 9 2 9 8 0 6 -10 64
-13 233 -12 123 0 249 -3 279 -8 103 -15 356 -8 513 15 81 12 154 22 161 22 8
0 32 -52 60 -132 26 -73 66 -182 88 -243 23 -60 54 -153 70 -205 72 -238 89
-293 132 -419 47 -138 86 -217 140 -285 27 -36 30 -46 28 -95 -5 -81 23 -119
108 -148 36 -12 79 -22 95 -23 51 0 511 129 645 182 30 12 78 36 106 55 l51
33 0 77 c1 101 -2 111 -43 128 -29 12 -41 27 -75 102 -22 48 -57 129 -77 181
-26 66 -38 88 -40 72 -3 -16 -16 7 -42 76 -78 205 -281 634 -300 634 -5 0 -7
7 -4 15 3 8 -41 106 -99 217 -142 274 -225 441 -287 578 -28 63 -63 138 -76
167 -13 29 -37 87 -53 130 -17 43 -55 134 -86 203 -82 180 -200 458 -215 505
-31 102 -139 398 -207 570 -116 297 -150 377 -240 564 -46 96 -81 176 -79 179
3 2 14 -15 26 -38 12 -23 38 -70 59 -103 64 -104 144 -266 200 -402 30 -71
105 -231 167 -355 115 -230 150 -320 288 -750 50 -153 135 -356 136 -324 0 19
-190 670 -222 759 -6 17 -77 163 -157 325 -81 162 -169 349 -195 415 -64 157
-131 290 -216 430 -101 164 -170 308 -238 495 -33 91 -75 201 -92 245 -33 82
-138 384 -146 420 -2 11 -9 46 -14 77 -15 82 -47 169 -72 195 -31 33 -70 30
-104 -9z m9 -570 c30 -62 65 -149 76 -193 27 -107 86 -280 155 -452 31 -78 56
-144 56 -146 0 -3 30 -72 66 -154 36 -81 95 -224 131 -317 35 -93 94 -235 130
-315 76 -169 128 -297 188 -467 24 -67 73 -189 108 -270 75 -172 98 -230 161
-408 51 -142 50 -140 36 -131 -28 17 -152 299 -295 670 -130 338 -162 418
-210 519 -25 54 -73 165 -106 245 -33 80 -67 160 -76 176 -31 62 -114 277
-153 398 -47 147 -108 273 -257 538 -139 246 -146 260 -133 273 5 5 10 18 10
27 0 26 42 129 50 124 4 -2 32 -55 63 -117z m127 57 c0 -5 -5 -3 -10 5 -5 8
-10 20 -10 25 0 6 5 3 10 -5 5 -8 10 -19 10 -25z m91 -225 c38 -96 86 -222
104 -280 72 -219 165 -482 235 -660 39 -102 87 -225 105 -275 18 -49 59 -151
90 -225 72 -172 119 -294 151 -389 45 -135 115 -313 153 -390 49 -98 144 -324
219 -521 33 -85 104 -254 159 -375 55 -121 104 -231 108 -243 4 -13 48 -115
97 -225 50 -111 110 -245 133 -297 23 -52 77 -170 119 -263 42 -92 76 -169 76
-172 0 -3 15 -38 34 -79 59 -128 94 -209 111 -261 10 -28 42 -101 72 -164 65
-138 74 -171 45 -171 -27 0 -32 8 -97 150 -31 69 -70 146 -86 173 -33 54 -111
236 -176 412 -92 251 -134 347 -310 715 -127 265 -215 478 -341 830 -33 91
-77 201 -97 245 -49 106 -115 265 -109 265 2 0 -9 24 -25 53 -16 28 -47 97
-69 152 -37 92 -74 177 -132 297 -12 27 -25 46 -29 44 -3 -2 -7 6 -7 17 -2 36
-40 122 -52 120 -7 -2 -10 7 -6 25 6 29 -18 108 -86 287 -23 61 -52 137 -65
170 -12 33 -44 128 -70 210 -26 83 -58 179 -71 215 -13 36 -23 74 -22 85 2 32
-22 96 -34 89 -7 -4 -8 -2 -4 4 4 7 0 27 -9 45 -8 18 -20 58 -25 89 -7 45 -58
187 -120 333 -16 37 -60 166 -59 173 1 10 10 -12 90 -208z m-264 -118 c104
-170 173 -302 173 -333 0 -37 -32 -17 -69 45 -64 105 -84 102 -148 -20 -37
-69 -66 -131 -169 -359 -41 -91 -83 -204 -134 -355 -27 -82 -79 -225 -114
-317 -35 -92 -82 -215 -104 -273 -51 -139 -237 -584 -265 -635 -11 -22 -27
-46 -34 -53 -7 -7 -13 -19 -13 -25 0 -7 5 -6 11 3 9 13 10 13 6 -1 -3 -10 -11
-37 -18 -60 -6 -24 -20 -62 -29 -84 -105 -237 -190 -467 -220 -592 -11 -48
-24 -97 -29 -108 -43 -96 -53 -121 -58 -148 -3 -18 -12 -41 -19 -52 -6 -11
-22 -54 -34 -95 -39 -130 -58 -189 -90 -273 -71 -193 -164 -471 -195 -582 -45
-160 -110 -342 -162 -455 -9 -19 -18 -44 -20 -54 -2 -11 -7 -24 -12 -30 -5 -6
-11 -25 -13 -41 -2 -24 1 -30 17 -30 15 0 20 -7 20 -25 0 -16 6 -26 18 -28 20
-4 83 32 91 53 9 25 -13 27 -50 5 -19 -12 -37 -20 -39 -18 -3 3 4 31 15 64
155 454 235 717 242 789 2 17 6 32 9 35 4 3 30 77 58 165 172 529 185 567 226
670 5 11 9 22 10 25 9 27 19 40 29 38 6 -1 21 3 34 10 20 12 23 10 32 -13 13
-35 38 -31 55 10 12 27 23 36 52 44 40 10 295 38 423 46 41 3 143 9 225 15
165 11 619 11 730 1 l70 -7 -115 -7 c-63 -5 -302 -12 -530 -17 -388 -9 -423
-11 -529 -34 -187 -41 -174 -61 42 -61 112 0 140 3 147 15 7 10 10 11 10 3 0
-13 61 -19 73 -7 3 4 86 6 184 5 131 -1 223 4 348 20 158 20 197 21 550 14
308 -5 383 -9 396 -21 42 -38 88 0 94 78 3 32 0 60 -5 63 -6 3 -10 13 -10 20
0 8 -17 52 -39 97 -38 81 -111 269 -111 285 0 5 -18 38 -39 75 -65 111 -127
278 -266 718 -21 63 -56 162 -80 220 -23 58 -61 167 -85 243 -47 156 -90 268
-157 407 -73 153 -92 197 -149 348 -52 137 -65 192 -45 192 5 0 14 -12 19 -27
66 -182 158 -415 190 -484 22 -47 43 -97 47 -110 4 -13 17 -46 30 -74 12 -27
28 -72 35 -100 7 -27 19 -55 26 -61 15 -12 84 -148 115 -227 12 -29 63 -174
114 -322 51 -149 118 -327 148 -396 72 -166 129 -308 157 -394 40 -122 277
-702 380 -930 5 -11 27 -65 49 -120 22 -55 71 -165 109 -245 77 -159 268 -621
318 -769 34 -102 60 -134 103 -129 23 3 26 7 26 43 -1 22 -4 65 -9 95 -5 30
-5 52 -2 49 4 -3 29 -57 56 -120 28 -63 59 -126 70 -141 11 -15 16 -29 12 -32
-4 -2 -36 -9 -71 -16 -35 -6 -114 -27 -175 -46 -146 -46 -202 -57 -228 -43
-23 12 -70 110 -100 207 -11 35 -46 136 -79 224 -33 88 -95 266 -138 396 -92
276 -120 352 -194 522 -6 14 -16 43 -22 65 -13 48 -98 180 -124 194 -77 42
-406 56 -1286 56 l-640 0 -69 -25 c-39 -14 -71 -30 -73 -36 -10 -30 252 -24
487 10 85 13 180 15 495 12 215 -2 399 -6 410 -8 11 -3 144 -9 295 -13 313 -8
355 -13 355 -37 0 -10 8 -27 18 -38 17 -20 17 -22 -8 -54 -14 -18 -25 -38 -25
-44 0 -7 -6 -12 -12 -13 -7 0 -124 -2 -260 -5 -206 -3 -248 -2 -248 10 0 18
35 27 73 19 17 -4 28 -2 25 3 -5 8 177 4 312 -8 31 -2 45 1 50 12 17 34 31 91
24 101 -25 40 -128 46 -799 41 -440 -3 -700 -19 -937 -58 -81 -13 -157 -24
-168 -24 -12 0 -31 -9 -43 -20 -20 -20 -22 -20 -34 -4 -7 10 -15 15 -19 12 -6
-7 -39 -123 -60 -217 -18 -81 -55 -203 -60 -198 -2 2 1 19 7 38 5 19 19 81 29
139 11 58 24 123 29 145 26 106 26 98 4 86 -11 -5 -31 -36 -43 -68 -13 -32
-33 -80 -45 -108 -37 -85 -103 -288 -118 -365 -9 -45 -86 -353 -118 -469 -36
-130 -50 -165 -114 -276 -49 -86 -55 -128 -19 -133 11 -2 32 6 46 18 27 21
158 269 158 299 0 9 11 54 24 101 13 47 36 130 51 185 15 55 42 152 60 215 18
63 36 129 40 145 4 17 10 24 12 17 7 -17 -49 -270 -99 -452 -59 -213 -104
-349 -164 -497 -30 -72 -54 -141 -54 -153 0 -18 -4 -20 -22 -14 -13 4 -30 7
-38 7 -8 -1 -64 5 -124 13 -61 8 -131 14 -158 14 -26 0 -48 1 -48 3 0 2 12 37
26 78 14 41 38 135 54 209 41 192 52 232 114 445 31 104 62 219 70 255 37 170
171 618 206 685 15 30 62 163 145 410 85 254 93 282 105 350 16 100 60 292 84
377 39 133 172 480 487 1268 45 113 92 234 104 270 58 167 341 819 355 820 3
0 47 -67 97 -148z m23 -382 c0 -5 -5 -10 -11 -10 -5 0 -7 5 -4 10 3 6 8 10 11
10 2 0 4 -4 4 -10z m184 -383 c136 -315 193 -460 265 -672 39 -115 77 -221 83
-235 17 -39 74 -210 133 -396 30 -94 68 -209 85 -255 17 -46 47 -128 66 -182
19 -53 61 -157 93 -230 74 -169 121 -291 121 -317 0 -11 -7 -20 -15 -20 -8 0
-15 4 -15 10 0 16 -52 37 -125 50 -109 19 -1310 8 -1510 -13 -143 -16 -282
-38 -334 -53 -23 -7 -24 -5 -18 24 12 58 98 276 221 562 195 450 222 517 292
722 59 172 221 608 258 691 12 29 163 405 181 452 6 17 10 13 24 -25 36 -101
48 -93 43 30 -3 55 -1 117 3 137 l7 38 34 -73 c19 -41 68 -151 108 -245z
m-283 236 c-12 -20 -14 -14 -5 12 4 9 9 14 11 11 3 -2 0 -13 -6 -23z m-30 -80
c-12 -20 -14 -14 -5 12 4 9 9 14 11 11 3 -2 0 -13 -6 -23z m-20 -46 c-10 -9
-11 -8 -5 6 3 10 9 15 12 12 3 -3 0 -11 -7 -18z m-27 -94 c-8 -21 -46 -117
-83 -213 -114 -292 -125 -319 -129 -316 -6 6 72 255 133 421 37 103 61 146 51
90 -5 -25 -3 -23 14 13 26 52 36 56 14 5z m1175 -523 c11 -24 11 -24 -3 -6 -9
11 -16 24 -16 30 0 12 5 7 19 -24z m186 -363 c23 -51 48 -110 54 -132 6 -22
18 -62 26 -90 9 -27 11 -45 6 -40 -4 6 -22 53 -40 106 -17 53 -47 131 -66 173
-19 42 -32 76 -29 76 3 0 25 -42 49 -93z m-527 -252 c-3 -3 -9 2 -12 12 -6 14
-5 15 5 6 7 -7 10 -15 7 -18z m80 -161 c16 -43 40 -115 51 -159 12 -44 26 -89
31 -100 26 -58 82 -211 87 -238 10 -48 -11 -25 -40 45 -71 170 -156 402 -176
478 -12 47 -25 94 -28 105 -12 46 47 -58 75 -131z m-1381 114 c-3 -8 -6 -5 -6
6 -1 11 2 17 5 13 3 -3 4 -12 1 -19z m-82 -234 c-40 -114 -122 -292 -161 -349
-14 -19 -14 -19 -14 2 0 12 6 34 14 50 23 46 86 188 86 195 0 11 112 239 116
235 2 -2 -16 -62 -41 -133z m1716 -524 c7 -22 16 -40 21 -40 4 0 8 -8 8 -17 0
-15 -2 -14 -19 3 -10 10 -16 24 -14 30 2 6 -3 14 -11 17 -9 4 -16 16 -16 27 0
34 19 22 31 -20z m-2337 -326 c-25 -82 -58 -185 -74 -229 -16 -44 -34 -96 -41
-115 -6 -19 -17 -48 -25 -65 -7 -16 -30 -82 -50 -145 -21 -63 -39 -109 -41
-103 -3 7 7 47 20 90 14 43 28 96 32 118 15 84 75 261 152 450 25 61 49 121
54 134 5 13 12 22 14 19 3 -2 -16 -72 -41 -154z m2270 -34 c39 -14 28 -22 -15
-10 -18 6 -122 11 -229 12 -150 1 -178 3 -120 9 101 9 329 3 364 -11z m-244
-385 c89 -6 109 -10 90 -17 -14 -5 -61 -7 -105 -4 -44 3 -145 6 -225 7 -96 2
-126 4 -90 8 101 11 214 13 330 6z m-390 -15 c0 -5 -9 -10 -20 -10 -11 0 -20
5 -20 10 0 6 9 10 20 10 11 0 20 -4 20 -10z m-385 -61 c-22 -4 -49 -8 -60 -7
-16 0 -15 2 5 8 14 4 41 8 60 8 l35 0 -40 -9z m-795 -24 c41 -2 127 -4 190 -6
l115 -2 -90 -8 c-159 -13 -321 -11 -334 4 -14 18 -3 29 23 21 11 -4 54 -8 96
-9z m2066 -291 c10 -22 21 -41 24 -44 5 -4 27 -57 76 -180 7 -19 32 -84 55
-145 22 -60 46 -113 52 -117 9 -6 8 -8 -1 -8 -10 0 -10 -6 2 -27 8 -16 22 -55
32 -88 9 -33 41 -123 72 -200 79 -204 130 -355 121 -361 -9 -5 -19 11 -62 101
-16 33 -34 67 -41 75 -24 28 -125 265 -152 355 -42 143 -86 275 -167 496 -94
259 -120 344 -111 371 5 17 15 -2 44 -84 21 -58 46 -123 56 -144z m-1888 198
c3 -9 -2 -13 -14 -10 -9 1 -19 9 -22 16 -3 9 2 13 14 10 9 -1 19 -9 22 -16z
m32 8 c0 -5 -5 -10 -11 -10 -5 0 -7 5 -4 10 3 6 8 10 11 10 2 0 4 -4 4 -10z
m-278 -30 c26 0 18 -22 -9 -26 -22 -4 -38 20 -26 39 5 8 8 8 11 -1 2 -7 13
-12 24 -12z m-676 -216 c-24 -82 -55 -189 -69 -239 -14 -49 -44 -153 -67 -230
-63 -212 -99 -350 -115 -452 -9 -50 -22 -110 -30 -133 -8 -24 -15 -53 -15 -66
0 -23 -4 -24 -59 -24 -81 0 -88 11 -51 89 17 35 30 70 30 79 0 10 9 35 20 57
11 22 42 105 71 185 28 80 71 201 96 270 25 69 73 204 105 300 61 177 118 323
124 317 2 -2 -16 -71 -40 -153z m3407 -319 c-3 -9 -8 -14 -10 -11 -3 3 -2 9 2
15 9 16 15 13 8 -4z m-3083 -154 c0 -6 -4 -13 -10 -16 -5 -3 -10 1 -10 9 0 9
5 16 10 16 6 0 10 -4 10 -9z m3230 -32 c0 -11 -4 -18 -10 -14 -5 3 -7 12 -3
20 7 21 13 19 13 -6z m-3245 -19 c-3 -5 -11 -10 -16 -10 -6 0 -7 5 -4 10 3 6
11 10 16 10 6 0 7 -4 4 -10z m3283 -63 c25 -59 26 -67 11 -67 -5 0 -8 4 -5 9
4 5 1 11 -5 13 -7 2 -13 13 -13 24 -1 11 -4 24 -7 29 -12 22 -18 45 -11 45 4
0 17 -24 30 -53z"/>
<path d="M11195 3183 c4 -10 60 -176 125 -369 113 -334 210 -677 271 -954 35
-162 43 -191 89 -340 45 -143 74 -198 94 -181 11 9 11 24 -1 83 -11 63 -83
295 -104 338 -8 17 -31 95 -36 125 -8 46 -65 250 -97 351 -19 60 -57 181 -85
269 -27 88 -57 180 -66 205 -9 25 -19 59 -22 75 -3 17 -9 35 -13 40 -4 6 -24
60 -45 120 -40 117 -99 255 -110 255 -4 0 -4 -8 0 -17z"/>
<path d="M11766 1578 c13 -40 36 -102 51 -136 23 -55 29 -62 39 -47 10 13 2
37 -44 136 -30 65 -59 119 -63 119 -4 0 3 -33 17 -72z"/>
<path d="M2771 6577 c-20 -52 -33 -198 -28 -319 3 -68 7 -319 10 -558 6 -508
13 -657 33 -800 17 -115 39 -174 30 -80 -7 75 -25 352 -35 540 -12 234 -13
926 -1 1089 6 79 8 146 5 149 -2 3 -9 -7 -14 -21z"/>
</g>
</svg>
